<svg xmlns="http://www.w3.org/2000/svg">
	<symbol id="nrglab" viewBox="249 450 149 124">
		<path d="M285.9,501.8l6.6-9.5c-12.2,0.5-20-3.3-24.6-11.9l9.3-5.8l-28.4-14.6l9,21.5C264,496,275.4,500.8,285.9,501.8z"/>
		<path d="M397.4,516.5c0.1-7.9-3.2-22.1-25.8-29.2c-9.9-3.2-19.9-3.6-28.3-3.1l6.5,9.4c6.9,0.1,13,1,18.8,2.8c8.8,2.8,15.2,8.5,15.1,20c-0.1,6.1-3,12.3-11.4,20.1l-34.7-49.6c-1.9-2.6-3-5.7-3-9v-12.4c0-4,2.7-7.3,6.3-8.4c1.5-0.4,2.4-1.9,2.4-3.4c0-2-1.6-3.6-3.6-3.6h-38.2c-2,0-3.6,1.6-3.6,3.6c0,1.5,0.9,3,2.4,3.4c3.6,1,6.3,4.4,6.3,8.4v12.4c0,3.2-1,6.4-3,9l-43.2,61.8c-7.4,10.6,0.2,25.1,13.1,25.1h94.2c12.5,0,19.9-13.5,13.8-24c0.8-0.7,1.5-1.4,2.2-2.1C392.2,538.9,397.3,526.4,397.4,516.5z M327.2,473.4c2,0.2,3.5,1.9,3.3,3.9c-0.2,2-1.9,3.5-3.9,3.3c-2-0.2-3.5-1.9-3.3-3.9C323.5,474.7,325.2,473.2,327.2,473.4z M316.5,459.9c1.5,0.1,2.6,1.4,2.5,3c-0.1,1.5-1.4,2.6-3,2.5c-1.5-0.1-2.6-1.4-2.5-3C313.7,461,315,459.8,316.5,459.9z M317.9,487.3c3.2,0.3,5.5,3,5.3,6.2c-0.3,3.2-3,5.5-6.2,5.3c-3.2-0.3-5.5-3-5.3-6.2C312,489.4,314.7,487,317.9,487.3z M291.4,519.5l6.7-6.2c0.8-0.7,2-0.8,2.8-0.1l12.2,10.4c1.7,1.4,0.3,4.2-1.8,3.7l-18.9-4.2C290.7,522.8,290.2,520.7,291.4,519.5z M351.9,544.1l-12.8,13l-2.8-11.1l-2,14.6h-13.5h-9.6l-2-14.6l-3.6,14.1c-0.1-0.1-0.3-0.1-0.4-0.2l-15.6-15.8c-1.7-1.7-0.6-4.7,1.8-4.8l28.2-1l2,14.4l3.7-14.3l25,0.9C352.5,539.4,353.6,542.4,351.9,544.1z M349.1,523.1l-18.9,4.2c-2.2,0.5-3.5-2.3-1.8-3.7l12.2-10.4c0.8-0.7,2-0.7,2.8,0.1l6.7,6.2C351.4,520.7,350.8,522.8,349.1,523.1z"/>
	</symbol>
	<symbol id="facebook" viewBox="0 0 64 64">
		<path d="M39.8,12.2H48V0h-9.7v0C26.6,0.5,24.2,7.1,24,14h0v6.1h-8V32h8v32H36V32h9.9l1.9-11.9H36v-3.7 C36,14.1,37.6,12.2,39.8,12.2z"/>
	</symbol>
	<symbol id="instagram" viewBox="0 0 512 512">
		<path d="M352,0H160C71.648,0,0,71.648,0,160v192c0,88.352,71.648,160,160,160h192c88.352,0,160-71.648,160-160V160 C512,71.648,440.352,0,352,0z M464,352c0,61.76-50.24,112-112,112H160c-61.76,0-112-50.24-112-112V160C48,98.24,98.24,48,160,48 h192c61.76,0,112,50.24,112,112V352z"/>
		<path d="M256,128c-70.688,0-128,57.312-128,128s57.312,128,128,128s128-57.312,128-128S326.688,128,256,128z M256,336 c-44.096,0-80-35.904-80-80c0-44.128,35.904-80,80-80s80,35.872,80,80C336,300.096,300.096,336,256,336z"/>
		<circle cx="393.6" cy="118.4" r="17.056"/>
	</symbol>
	<symbol id="soundcloud" viewBox="0 72 512 368">
		<path d="M432,240c-5.696,0-11.296,0.608-16.672,1.76C408.128,169.024,346.592,112,272,112c-8.832,0-16,7.168-16,16v256 c0,8.832,7.168,16,16,16h160c44.128,0,80-35.872,80-80C512,275.904,476.128,240,432,240z"/>
		<path d="M208,144c-8.832,0-16,7.168-16,16v224c0,8.832,7.168,16,16,16c8.832,0,16-7.168,16-16V160 C224,151.168,216.832,144,208,144z"/>
		<path d="M144,208c-8.832,0-16,7.168-16,16v160c0,8.832,7.168,16,16,16c8.832,0,16-7.168,16-16V224 C160,215.168,152.832,208,144,208z"/>
		<path d="M80,208c-8.832,0-16,7.168-16,16v160c0,8.832,7.168,16,16,16c8.832,0,16-7.168,16-16V224C96,215.168,88.832,208,80,208z"/>
		<path d="M16,256c-8.832,0-16,7.168-16,16v96c0,8.832,7.168,16,16,16c8.832,0,16-7.168,16-16v-96C32,263.168,24.832,256,16,256z"/>
	</symbol>
	<symbol id="youtube" viewBox="0 60 512 392">
		<path d="M490.24,113.92c-13.888-24.704-28.96-29.248-59.648-30.976C399.936,80.864,322.848,80,256.064,80 c-66.912,0-144.032,0.864-174.656,2.912c-30.624,1.76-45.728,6.272-59.744,31.008C7.36,138.592,0,181.088,0,255.904 C0,255.968,0,256,0,256c0,0.064,0,0.096,0,0.096v0.064c0,74.496,7.36,117.312,21.664,141.728 c14.016,24.704,29.088,29.184,59.712,31.264C112.032,430.944,189.152,432,256.064,432c66.784,0,143.872-1.056,174.56-2.816 c30.688-2.08,45.76-6.56,59.648-31.264C504.704,373.504,512,330.688,512,256.192c0,0,0-0.096,0-0.16c0,0,0-0.064,0-0.096 C512,181.088,504.704,138.592,490.24,113.92z M192,352V160l160,96L192,352z"/>
	</symbol>
	<symbol id="discord" viewBox="27 0 192 224">
		<path d="M104.4 103.9c-5.7 0-10.2 5-10.2 11.1s4.6 11.1 10.2 11.1c5.7 0 10.2-5 10.2-11.1.1-6.1-4.5-11.1-10.2-11.1zM140.9 103.9c-5.7 0-10.2 5-10.2 11.1s4.6 11.1 10.2 11.1c5.7 0 10.2-5 10.2-11.1s-4.5-11.1-10.2-11.1z"/><path d="M189.5 20h-134C44.2 20 35 29.2 35 40.6v135.2c0 11.4 9.2 20.6 20.5 20.6h113.4l-5.3-18.5 12.8 11.9 12.1 11.2 21.5 19V40.6c0-11.4-9.2-20.6-20.5-20.6zm-38.6 130.6s-3.6-4.3-6.6-8.1c13.1-3.7 18.1-11.9 18.1-11.9-4.1 2.7-8 4.6-11.5 5.9-5 2.1-9.8 3.5-14.5 4.3-9.6 1.8-18.4 1.3-25.9-.1-5.7-1.1-10.6-2.7-14.7-4.3-2.3-.9-4.8-2-7.3-3.4-.3-.2-.6-.3-.9-.5-.2-.1-.3-.2-.4-.3-1.8-1-2.8-1.7-2.8-1.7s4.8 8 17.5 11.8c-3 3.8-6.7 8.3-6.7 8.3-22.1-.7-30.5-15.2-30.5-15.2 0-32.2 14.4-58.3 14.4-58.3 14.4-10.8 28.1-10.5 28.1-10.5l1 1.2c-18 5.2-26.3 13.1-26.3 13.1s2.2-1.2 5.9-2.9c10.7-4.7 19.2-6 22.7-6.3.6-.1 1.1-.2 1.7-.2 6.1-.8 13-1 20.2-.2 9.5 1.1 19.7 3.9 30.1 9.6 0 0-7.9-7.5-24.9-12.7l1.4-1.6s13.7-.3 28.1 10.5c0 0 14.4 26.1 14.4 58.3 0 0-8.5 14.5-30.6 15.2z"/>
	</symbol>
</svg>
